<mxfile host="app.diagrams.net" modified="2021-06-03T10:06:47.651Z" agent="5.0 (Macintosh)" etag="KcApwTipKkp6RXbm8vAi" version="14.7.4" type="github">
  <diagram id="nM9ZmTxpHpVggGZpvHxw" name="Page-1">
    <mxGraphModel dx="946" dy="623" grid="1" gridSize="10" guides="1" tooltips="1" connect="1" arrows="1" fold="1" page="0" pageScale="1" pageWidth="850" pageHeight="1100" math="0" shadow="0">
      <root>
        <mxCell id="0" />
        <mxCell id="1" parent="0" />
        <mxCell id="1e_1MFbeS7l4MN63-IpH-2" value="Homepage" style="swimlane;" parent="1" vertex="1">
          <mxGeometry x="240" y="280" width="200" height="160" as="geometry" />
        </mxCell>
        <mxCell id="1e_1MFbeS7l4MN63-IpH-3" value="Customers" style="rounded=0;whiteSpace=wrap;html=1;" parent="1e_1MFbeS7l4MN63-IpH-2" vertex="1">
          <mxGeometry y="40" width="200" height="40" as="geometry" />
        </mxCell>
        <mxCell id="1e_1MFbeS7l4MN63-IpH-7" value="Orders" style="rounded=0;whiteSpace=wrap;html=1;" parent="1e_1MFbeS7l4MN63-IpH-2" vertex="1">
          <mxGeometry y="80" width="200" height="40" as="geometry" />
        </mxCell>
        <mxCell id="1e_1MFbeS7l4MN63-IpH-8" value="Products" style="rounded=0;whiteSpace=wrap;html=1;" parent="1e_1MFbeS7l4MN63-IpH-2" vertex="1">
          <mxGeometry y="120" width="200" height="40" as="geometry" />
        </mxCell>
        <mxCell id="CQ-dvAHMIQs1NIeJlKdL-20" value="" style="edgeStyle=orthogonalEdgeStyle;rounded=0;orthogonalLoop=1;jettySize=auto;html=1;" edge="1" parent="1" source="1e_1MFbeS7l4MN63-IpH-4" target="CQ-dvAHMIQs1NIeJlKdL-18">
          <mxGeometry relative="1" as="geometry" />
        </mxCell>
        <mxCell id="1e_1MFbeS7l4MN63-IpH-4" value="Customers" style="swimlane;" parent="1" vertex="1">
          <mxGeometry x="560" y="50" width="200" height="200" as="geometry" />
        </mxCell>
        <mxCell id="1e_1MFbeS7l4MN63-IpH-10" value="Read" style="rounded=0;whiteSpace=wrap;html=1;" parent="1e_1MFbeS7l4MN63-IpH-4" vertex="1">
          <mxGeometry y="80" width="200" height="40" as="geometry" />
        </mxCell>
        <mxCell id="CQ-dvAHMIQs1NIeJlKdL-30" style="edgeStyle=orthogonalEdgeStyle;rounded=0;orthogonalLoop=1;jettySize=auto;html=1;exitX=1;exitY=0.5;exitDx=0;exitDy=0;entryX=0.5;entryY=0;entryDx=0;entryDy=0;" edge="1" parent="1" source="1e_1MFbeS7l4MN63-IpH-16" target="CQ-dvAHMIQs1NIeJlKdL-25">
          <mxGeometry relative="1" as="geometry">
            <Array as="points">
              <mxPoint x="1180" y="340" />
            </Array>
          </mxGeometry>
        </mxCell>
        <mxCell id="1e_1MFbeS7l4MN63-IpH-13" value="Orders" style="swimlane;" parent="1" vertex="1">
          <mxGeometry x="560" y="280" width="200" height="200" as="geometry" />
        </mxCell>
        <mxCell id="1e_1MFbeS7l4MN63-IpH-14" value="Update" style="rounded=0;whiteSpace=wrap;html=1;" parent="1e_1MFbeS7l4MN63-IpH-13" vertex="1">
          <mxGeometry y="120" width="200" height="40" as="geometry" />
        </mxCell>
        <mxCell id="1e_1MFbeS7l4MN63-IpH-15" value="Read" style="rounded=0;whiteSpace=wrap;html=1;" parent="1e_1MFbeS7l4MN63-IpH-13" vertex="1">
          <mxGeometry y="80" width="200" height="40" as="geometry" />
        </mxCell>
        <mxCell id="1e_1MFbeS7l4MN63-IpH-17" value="Delete" style="rounded=0;whiteSpace=wrap;html=1;" parent="1e_1MFbeS7l4MN63-IpH-13" vertex="1">
          <mxGeometry y="160" width="200" height="40" as="geometry" />
        </mxCell>
        <mxCell id="1e_1MFbeS7l4MN63-IpH-16" value="Create" style="rounded=0;whiteSpace=wrap;html=1;" parent="1e_1MFbeS7l4MN63-IpH-13" vertex="1">
          <mxGeometry y="40" width="200" height="40" as="geometry" />
        </mxCell>
        <mxCell id="1e_1MFbeS7l4MN63-IpH-18" style="edgeStyle=orthogonalEdgeStyle;rounded=0;orthogonalLoop=1;jettySize=auto;html=1;exitX=1;exitY=0.5;exitDx=0;exitDy=0;entryX=0;entryY=0.5;entryDx=0;entryDy=0;" parent="1" source="1e_1MFbeS7l4MN63-IpH-7" target="1e_1MFbeS7l4MN63-IpH-13" edge="1">
          <mxGeometry relative="1" as="geometry" />
        </mxCell>
        <mxCell id="CQ-dvAHMIQs1NIeJlKdL-23" value="" style="edgeStyle=orthogonalEdgeStyle;rounded=0;orthogonalLoop=1;jettySize=auto;html=1;" edge="1" parent="1" source="1e_1MFbeS7l4MN63-IpH-19" target="CQ-dvAHMIQs1NIeJlKdL-21">
          <mxGeometry relative="1" as="geometry" />
        </mxCell>
        <mxCell id="1e_1MFbeS7l4MN63-IpH-19" value="Products" style="swimlane;" parent="1" vertex="1">
          <mxGeometry x="560" y="760" width="200" height="200" as="geometry" />
        </mxCell>
        <mxCell id="1e_1MFbeS7l4MN63-IpH-21" value="Read" style="rounded=0;whiteSpace=wrap;html=1;" parent="1e_1MFbeS7l4MN63-IpH-19" vertex="1">
          <mxGeometry y="80" width="200" height="40" as="geometry" />
        </mxCell>
        <mxCell id="CQ-dvAHMIQs1NIeJlKdL-2" style="edgeStyle=orthogonalEdgeStyle;rounded=0;orthogonalLoop=1;jettySize=auto;html=1;exitX=1;exitY=0.5;exitDx=0;exitDy=0;entryX=0;entryY=0.5;entryDx=0;entryDy=0;" edge="1" parent="1" source="1e_1MFbeS7l4MN63-IpH-3" target="1e_1MFbeS7l4MN63-IpH-10">
          <mxGeometry relative="1" as="geometry" />
        </mxCell>
        <mxCell id="CQ-dvAHMIQs1NIeJlKdL-4" style="edgeStyle=orthogonalEdgeStyle;rounded=0;orthogonalLoop=1;jettySize=auto;html=1;exitX=1;exitY=0.5;exitDx=0;exitDy=0;entryX=0;entryY=0.75;entryDx=0;entryDy=0;" edge="1" parent="1" source="1e_1MFbeS7l4MN63-IpH-8" target="1e_1MFbeS7l4MN63-IpH-19">
          <mxGeometry relative="1" as="geometry" />
        </mxCell>
        <mxCell id="CQ-dvAHMIQs1NIeJlKdL-12" value="Create Order" style="swimlane;" vertex="1" parent="1">
          <mxGeometry x="830" y="480" width="200" height="200" as="geometry" />
        </mxCell>
        <mxCell id="CQ-dvAHMIQs1NIeJlKdL-11" value="ProductId[]" style="rounded=0;whiteSpace=wrap;html=1;" vertex="1" parent="CQ-dvAHMIQs1NIeJlKdL-12">
          <mxGeometry y="100" width="120" height="40" as="geometry" />
        </mxCell>
        <mxCell id="CQ-dvAHMIQs1NIeJlKdL-10" value="customerId" style="rounded=0;whiteSpace=wrap;html=1;" vertex="1" parent="CQ-dvAHMIQs1NIeJlKdL-12">
          <mxGeometry y="60" width="200" height="40" as="geometry" />
        </mxCell>
        <mxCell id="CQ-dvAHMIQs1NIeJlKdL-15" value="Quantity" style="rounded=0;whiteSpace=wrap;html=1;" vertex="1" parent="CQ-dvAHMIQs1NIeJlKdL-12">
          <mxGeometry x="120" y="100" width="80" height="40" as="geometry" />
        </mxCell>
        <mxCell id="CQ-dvAHMIQs1NIeJlKdL-13" style="edgeStyle=orthogonalEdgeStyle;rounded=0;orthogonalLoop=1;jettySize=auto;html=1;exitX=1;exitY=0.5;exitDx=0;exitDy=0;entryX=0.5;entryY=0;entryDx=0;entryDy=0;" edge="1" parent="1" source="1e_1MFbeS7l4MN63-IpH-15" target="CQ-dvAHMIQs1NIeJlKdL-12">
          <mxGeometry relative="1" as="geometry" />
        </mxCell>
        <mxCell id="CQ-dvAHMIQs1NIeJlKdL-14" style="edgeStyle=orthogonalEdgeStyle;rounded=0;orthogonalLoop=1;jettySize=auto;html=1;exitX=1;exitY=0.5;exitDx=0;exitDy=0;entryX=0.5;entryY=0;entryDx=0;entryDy=0;" edge="1" parent="1" source="1e_1MFbeS7l4MN63-IpH-14" target="CQ-dvAHMIQs1NIeJlKdL-12">
          <mxGeometry relative="1" as="geometry" />
        </mxCell>
        <mxCell id="CQ-dvAHMIQs1NIeJlKdL-18" value="Customer" style="swimlane;" vertex="1" parent="1">
          <mxGeometry x="840" y="50" width="200" height="200" as="geometry" />
        </mxCell>
        <mxCell id="CQ-dvAHMIQs1NIeJlKdL-21" value="Product" style="swimlane;" vertex="1" parent="1">
          <mxGeometry x="840" y="760" width="200" height="200" as="geometry" />
        </mxCell>
        <mxCell id="CQ-dvAHMIQs1NIeJlKdL-25" value="Order" style="swimlane;" vertex="1" parent="1">
          <mxGeometry x="1080" y="480" width="200" height="200" as="geometry" />
        </mxCell>
        <mxCell id="CQ-dvAHMIQs1NIeJlKdL-26" value="Update" style="rounded=0;whiteSpace=wrap;html=1;" vertex="1" parent="CQ-dvAHMIQs1NIeJlKdL-25">
          <mxGeometry y="120" width="200" height="40" as="geometry" />
        </mxCell>
        <mxCell id="CQ-dvAHMIQs1NIeJlKdL-27" value="Read" style="rounded=0;whiteSpace=wrap;html=1;" vertex="1" parent="CQ-dvAHMIQs1NIeJlKdL-25">
          <mxGeometry y="80" width="200" height="40" as="geometry" />
        </mxCell>
        <mxCell id="CQ-dvAHMIQs1NIeJlKdL-28" value="Delete" style="rounded=0;whiteSpace=wrap;html=1;" vertex="1" parent="CQ-dvAHMIQs1NIeJlKdL-25">
          <mxGeometry y="160" width="200" height="40" as="geometry" />
        </mxCell>
        <mxCell id="CQ-dvAHMIQs1NIeJlKdL-29" value="Create" style="rounded=0;whiteSpace=wrap;html=1;" vertex="1" parent="CQ-dvAHMIQs1NIeJlKdL-25">
          <mxGeometry y="40" width="200" height="40" as="geometry" />
        </mxCell>
      </root>
    </mxGraphModel>
  </diagram>
</mxfile>
